/* XPM */
static char *_b777e16eed84618c0e161859d35c1a5Dqvbt4UAQ3lvD3Ya[] = {
/* columns rows colors chars-per-pixel */
"50 50 143 2 ",
"   c None",
".  c #242626",
"X  c #2C2525",
"o  c #322425",
"O  c #3C2324",
"+  c #372728",
"@  c #631C1F",
"#  c #6C1B1E",
"$  c #731B1E",
"%  c #7D191D",
"&  c #4C1F21",
"*  c #541F21",
"=  c #5C1E21",
"-  c #641E21",
";  c #6D1E22",
":  c #761D21",
">  c #7B1E22",
",  c #442223",
"<  c #4B2224",
"1  c #532224",
"2  c #5C2123",
"3  c #512D2E",
"4  c #5F2F31",
"5  c #543637",
"6  c #53383A",
"7  c #58393B",
"8  c #642124",
"9  c #6C2124",
"0  c #752124",
"q  c #792023",
"w  c #772428",
"e  c #6E2F31",
"r  c #762E31",
"t  c #6E3032",
"y  c #633B3C",
"u  c #474242",
"i  c #564142",
"p  c #5A4243",
"a  c #5B5757",
"s  c #694042",
"d  c #674A4C",
"f  c #695051",
"g  c #6A5E5F",
"h  c #665F60",
"j  c #767474",
"k  c #787A7A",
"l  c #86171C",
"z  c #8A171C",
"x  c #83191D",
"c  c #8B181D",
"v  c #94151B",
"b  c #9C151B",
"n  c #951A1F",
"m  c #9C1A1F",
"M  c #A41319",
"N  c #AA151B",
"B  c #A51A1F",
"V  c #AA191F",
"C  c #B3161D",
"Z  c #BA161D",
"A  c #B3181E",
"S  c #BD181F",
"D  c #841D22",
"F  c #8C1D22",
"G  c #941D22",
"H  c #9B1D22",
"J  c #A31C22",
"K  c #AB1C22",
"L  c #B51A21",
"P  c #BC1A21",
"I  c #812327",
"U  c #912126",
"Y  c #992025",
"T  c #B42026",
"R  c #C3161D",
"E  c #CE171F",
"W  c #C5181F",
"Q  c #CE181F",
"!  c #CC181F",
"~  c #C8181F",
"^  c #D1171F",
"/  c #C01920",
"(  c #C21920",
")  c #C01B22",
"_  c #C31B22",
"`  c #C41921",
"'  c #C41A21",
"]  c #C71A21",
"[  c #C61A22",
"{  c #C31920",
"}  c #C81A21",
"|  c #CA1A21",
" . c #CC1920",
".. c #CC1D24",
"X. c #C91A22",
"o. c #D11820",
"O. c #D01920",
"+. c #D31921",
"@. c #D51921",
"#. c #D71820",
"$. c #D71920",
"%. c #D61921",
"&. c #D71921",
"*. c #D61B23",
"=. c #D61921",
"-. c #D91921",
";. c #DB1821",
":. c #DA1921",
">. c #DB1921",
",. c #DC1921",
"<. c #DD1921",
"1. c #DE1921",
"2. c #DB1E26",
"3. c #DC1C24",
"4. c #DA1921",
"5. c #E21B23",
"6. c #E51E26",
"7. c #F01D26",
"8. c #F51C24",
"9. c #FE1C25",
"0. c #7F8181",
"q. c #828686",
"w. c #838080",
"e. c #8B8D8D",
"r. c #888B8B",
"t. c #999A9A",
"y. c #9FA0A0",
"u. c #A4A4A4",
"i. c #A7AAAA",
"p. c #AAABAB",
"a. c #AEB2B1",
"s. c #B1B4B4",
"d. c #B3B5B5",
"f. c #BABDBC",
"g. c #C3C5C5",
"h. c #CACCCC",
"j. c #CED2D1",
"k. c #D7D8D8",
"l. c gray85",
"z. c #E3E4E4",
"x. c #E5E5E5",
"c. c #EAEAEA",
"v. c #EAEAEA",
/* pixels */
"                                                                                                    ",
"                                                                                                    ",
"                                                                                                    ",
"                                                                                                    ",
"                                                                                                    ",
"                                                                                                    ",
"                                                                                                    ",
"                                                                                                    ",
"                              X .                                                                   ",
"                            o $ q +                                                                 ",
"                            O M K Y 1 .                                                             ",
"                            , z 1 2 I 2 X       O 2 o                                               ",
"                            & % q P 8 q 8 X . 1 L K X X X           . o , X                         ",
"                            , z 0 8.*.9 q 8 < _ 3.P G K Y O     . , - z % O                         ",
"                            , z 9 7.9.K < L H [ -.,.,.,.K o . , # % C D , X                         ",
"                            O v - 2...1 F -.-.&.-.-.-.&.P I < v m F H 8 F X                         ",
"                            o v ; Y 2 D ^ ,.,.-.-.-.-.-.,.-.[ Z O.[ 8 L Y X                         ",
"                . o , O X   X z l O ; ! -.-.-.-.-.-.-.-.-.-.-.-._ q G 8.0                           ",
"              + 9 H B P 8   . % b # C -.-.-.-.-.-.-.-.-.-.-.-.,.Y 2 6.6.<                           ",
"          . 2 m m 2 8 ( K < . = M M S -.-.-.,.-.-.-.-.-.-.-.-.-.P 2 2.T X X X .                     ",
"        o q B 9 , & ; > : H o O b % H ,.-.-.P S ,.-.-.-.-.-.-.-.-.q J 9 O H J > < .                 ",
"      O U v , * v # D 8 O B D O v l L -.,.P 5 7 F ! -.-.-.-.-.,.3.H < O G E F D K w X               ",
"    , H D , = z C = G 2 @ = S q * b ! -.,.I e.g.j e H &.-.-.-.S I 3 + F v > 0 o 1 H F O             ",
"    , = o x A Z N 2 G * $ * : [ q , 0 } -.t s.v.z.a.h w &.} I f t.q., H , 1 F - # , l G O           ",
"        . O ; A b 8 D # F b < z W K 8 H ,.t a.x.x.v.j.s E G k l.c.p.O < @ = G = l = , : H O         ",
"              1 : ; 9 z K v * o c -.U F ,.w r.z.v.v.f.r -.U t.x.v.u.X < v = G = N F v * > G O       ",
"                X ; 1 = , X . X < A 2 J 5.A p i.k.h.g J ,.J w.z.v.w.O $ B - F = N R C $ o ; ,       ",
"                  * + .       o , < = Z ,.-.H 6 a i F &.-.( d f.f.u O F C % > - m D < X   .         ",
"                  X             = % b N L &.-.R B P -.-.-.-.Y p y < . X 1 - 9 2 & X                 ",
"                                O b M M $ F -.,.,.,.-.-.-.-.-.W L ,       X 1 < .                   ",
"                                  @ M M M z L } -.-.-.-.-.-.-.&.0           o o                     ",
"                                  o $ M M N v n ^ &.-.-.-.^ E D X                                   ",
"                                    X # M N M M N C Z Z Z N $ +                                     ",
"                                      X * l M M N M M M z * X                                       ",
"                                          X < @ # $ @ & o                                           ",
"                                              . . . .                                               ",
"                                                                                                    ",
"                                                                                                    ",
"                                                                                                    ",
"                                                                                                    ",
"                                                                                                    ",
"                                                                                                    ",
"                                                                                                    ",
"                                                                                                    ",
"                                                                                                    ",
"                                                                                                    ",
"                                                                                                    ",
"                                                                                                    ",
"                                                                                                    ",
"                                                                                                    "
};
