/* XPM */
static char *_83ccd91c887421ada31dfd016fa7d38wYGiBGyGPsbTvnu4[] = {
/* columns rows colors chars-per-pixel */
"50 50 137 2 ",
"   c None",
".  c #242626",
"X  c #2B2525",
"o  c #292828",
"O  c #342425",
"+  c #3B2324",
"@  c #302728",
"#  c #5D1C1F",
"$  c #631C1F",
"%  c #6B1B1F",
"&  c #7D161B",
"*  c #741A1E",
"=  c #7B191D",
"-  c #4B1F21",
";  c #521F21",
":  c #5C1E21",
">  c #631E21",
",  c #6B1E21",
"<  c #771E21",
"1  c #7C1D21",
"2  c #442223",
"3  c #4C2223",
"4  c #472728",
"5  c #532223",
"6  c #5C2123",
"7  c #5B3637",
"8  c #632124",
"9  c #6B2024",
"0  c #6C2B2D",
"q  c #732124",
"w  c #7C2024",
"e  c #732A2D",
"r  c #79292D",
"t  c #6D3234",
"y  c #623A3B",
"u  c #72383B",
"i  c #5B4344",
"p  c #5C5B5B",
"a  c #635656",
"s  c #635D5D",
"d  c #626464",
"f  c #6F6061",
"g  c #6F6E6E",
"h  c #726767",
"j  c #717272",
"k  c #84151A",
"l  c #8B171C",
"z  c #82191D",
"x  c #8B1A1F",
"c  c #93161B",
"v  c #9C151B",
"b  c #94191E",
"n  c #9C1A1F",
"m  c #A4141A",
"M  c #A91319",
"N  c #A2181E",
"B  c #AC181E",
"V  c #B4161C",
"C  c #BA161C",
"Z  c #BC191F",
"A  c #841E22",
"S  c #8B1E23",
"D  c #941D22",
"F  c #9B1D22",
"G  c #A31C21",
"H  c #AD1B21",
"J  c #B41A21",
"K  c #B81B22",
"L  c #BA1920",
"P  c #BD1920",
"I  c #BC1A21",
"U  c #BB1F25",
"Y  c #862125",
"T  c #882226",
"R  c #912226",
"E  c #C2151C",
"W  c #C2171E",
"Q  c #C1161E",
"!  c #C9171F",
"~  c #C0181F",
"^  c #D6171F",
"/  c #C51820",
"(  c #C61920",
")  c #C71920",
"_  c #C51B22",
"`  c #CA1A21",
"'  c #CF1920",
"]  c #CC1A21",
"[  c #CD1A21",
"{  c #CF1A21",
"}  c #CC1C23",
"|  c #C81F26",
" . c #CC1921",
".. c #D21921",
"X. c #D31921",
"o. c #D01A21",
"O. c #D41820",
"+. c #D51820",
"@. c #D41921",
"#. c #D51921",
"$. c #D61921",
"%. c #D51920",
"&. c #D81820",
"*. c #D81921",
"=. c #D91921",
"-. c #DA1921",
";. c #DB1921",
":. c #DC1921",
">. c #DE1921",
",. c #DA1921",
"<. c #E41E26",
"1. c #EB1B23",
"2. c #EC1A23",
"3. c #E81B24",
"4. c #EB1C25",
"5. c #F21D26",
"6. c #F41D26",
"7. c #FA1B24",
"8. c #808080",
"9. c gray52",
"0. c #8C8D8D",
"q. c #919393",
"w. c #909292",
"e. c #9A9C9C",
"r. c gray65",
"t. c #A9ADAD",
"y. c #A9A9A9",
"u. c #B2B4B4",
"i. c #B4B8B8",
"p. c #C7C8C8",
"a. c #CBCDCD",
"s. c #CACDCD",
"d. c #D3D4D4",
"f. c #DADBDB",
"g. c #E5E5E5",
"h. c #EAEAEA",
"j. c #E9E9E9",
/* pixels */
"                                                                                                    ",
"                                                                                                    ",
"                                                                                                    ",
"                                                                                                    ",
"                                                                                                    ",
"                                                                                                    ",
"                                                                                                    ",
"                                                                                                    ",
"                                                                                                    ",
"                            X 5 3 o                                                                 ",
"                            + m I w O                                                               ",
"                            2 c 6 q Y 2         X + X                                               ",
"                            2 z 9 S 6 Y 4     + T F X                 . X                           ",
"                            3 k 1 4.H 6 A 4 + G :.H 8 q 9 O       X 2 $ * +                         ",
"                            2 l 9 6.7.H 5 G w ` =.=.$.:.U +   X 3 * m b 5 O                         ",
"                    . .     + c 8 <.4.9 8 { { { =.=.=.=.G 5 O = l < H 8 9 X                         ",
"              X 3 8 1 1 > O + c , U w 8 ! =.=.=.=.=.=.=.=.{ F M / ) 9 F G X                         ",
"          O 8 D H v A 1 ) S O l = 5 6 Z =.=.=.=.=.=.=.=.=.=.:.$.=.R q 4.Y                           ",
"      O 9 G b , 4 - 2 3 J H 3 = c 3 v =.=.=.=.=.=.=.=.=.=.=.=.:.G 5 | 6.5 . .                       ",
"      > F : 2 - * v > 1 < 1 A > m v ~ =.=.=.=.=.=.=.=.=.=.=.=.=.J 6 3.| 5 T A 8 +                   ",
"      X X 2 n D M M ; F + 5 B 3 c k G :.:.=.^ ..:.=.=.=.=.=.=.=.$.8 U T D I 1 F G 9 O               ",
"          X > V W = q A # # n A $ = G :.=.{ 0 q I :.=.=.=.=.=.=.:.F 9 6 1 G + 2 6 n F 3 .           ",
"              > V : D 6 % $ > I 6 = ..=.:.D g q.i A ) =.=.=.:.^ H 9 O : + D 6 & $ 2 , N 9 X         ",
"              X > 6 S : b n ; N G 3 G $.=.e t.h.s.8.7 F $.$.H e h d + 5 - < < * * $ : 5 G 1 O       ",
"                X 8 8 z B N % : W D 3 G ^ t i.j.j.g.i.y ^ G a u.g.r.o - z : S , V B V > + 8 +       ",
"                X 6 + 2 + + O X S ^ R A ^ r e.g.g.j.a.u ^ R e.j.j.y.@ $ m : D : V V 1 + . .         ",
"                  X .         X : ! q D <.N s p.j.g.8.T :.F 0.g.g.w.+ x C % A : b 6 .               ",
"                              X + > - Z =...q p 0.j 0 ` :.P s d.f.p O 8 A * , 8 +                   ",
"                              X 5 $ c V ! :...D < S { :.=.$.r g h 4 .   X O 4 6 .                   ",
"                                ; m m m 1 H =.:.$.=.=.=.=.:.` F D 5         X O                     ",
"                                X * M m c 1 ` $.=.=.=.=.=.=.=.:.D X                                 ",
"                                  + l M M m c G $.=.=.=.:.=.=.H 2                                   ",
"                                    2 l m M m m V E ! ! ! C v 2                                     ",
"                                      + * v m M m m M M m = +                                       ",
"                                        X 2 % l c c l % 3 X                                         ",
"                                            X X O O O .                                             ",
"                                                                                                    ",
"                                                                                                    ",
"                                                                                                    ",
"                                                                                                    ",
"                                                                                                    ",
"                                                                                                    ",
"                                                                                                    ",
"                                                                                                    ",
"                                                                                                    ",
"                                                                                                    ",
"                                                                                                    ",
"                                                                                                    ",
"                                                                                                    ",
"                                                                                                    "
};
