/* XPM */
static char *fde57cdb0b3a44aaf1ac8a1d255ffafba4wkJWUbABqAcndR[] = {
/* columns rows colors chars-per-pixel */
"50 50 95 2 ",
"   c None",
".  c #252626",
"X  c #2C2525",
"o  c #2D2D2D",
"O  c #332425",
"+  c #3C2324",
"@  c #5D1C1F",
"#  c #641C1F",
"$  c #6C1B1E",
"%  c #741A1E",
"&  c #7B191D",
"*  c #4D1F21",
"=  c #531F21",
"-  c #5C1F21",
";  c #641E21",
":  c #6C1E21",
">  c #741E21",
",  c #7C1E22",
"<  c #442324",
"1  c #4B2223",
"2  c #4C2628",
"3  c #522224",
"4  c #5C2124",
"5  c #5F2E30",
"6  c #5E3032",
"7  c #533739",
"8  c #533B3C",
"9  c #5B3B3D",
"0  c #662124",
"q  c #6C2124",
"w  c #742024",
"e  c #7A2125",
"r  c #752528",
"t  c #7B262A",
"y  c #6C3133",
"u  c #6E3D3F",
"i  c #594E4F",
"p  c #5F5D5D",
"a  c #694B4D",
"s  c #674F50",
"d  c #605656",
"f  c #655C5C",
"g  c #69595A",
"h  c #777676",
"j  c #797374",
"k  c #7B7A7A",
"l  c #86171C",
"z  c #8C171C",
"x  c #83181C",
"c  c #8B181D",
"v  c #94151A",
"b  c #9A151B",
"n  c #931A1F",
"m  c #A41419",
"M  c #AA141A",
"N  c #A6191F",
"B  c #AB181F",
"V  c #B2161D",
"C  c #BB161D",
"Z  c #B6181F",
"A  c #BC181F",
"S  c #841E22",
"D  c #8B1D22",
"F  c #931D22",
"G  c #9C1C22",
"H  c #A41C22",
"J  c #AC1B21",
"K  c #B51B22",
"L  c #BC1A21",
"P  c #8F2126",
"I  c #A22126",
"U  c #B12025",
"Y  c #C2171E",
"T  c #C9171F",
"R  c #C5181F",
"E  c #D2181F",
"W  c #C21A21",
"Q  c #CC1A21",
"!  c #D31921",
"~  c #DA1921",
"^  c #E21E26",
"/  c #EE1B23",
"(  c #FE1D26",
")  c #8C8A8A",
"_  c #9D9D9D",
"`  c #9EA1A1",
"'  c #A1A4A4",
"]  c #B3B6B6",
"[  c #BABBBB",
"{  c #C4C6C6",
"}  c #CBCECE",
"|  c #D6D8D8",
" . c #DADBDB",
".. c #E5E5E5",
"X. c #E9E9E9",
/* pixels */
"                                                                                                    ",
"                                                                                                    ",
"                                                                                                    ",
"                                                                                                    ",
"                                                                                                    ",
"                                                                                                    ",
"                                                                                                    ",
"                              X .                                                                   ",
"                              ; F 4 .                                                               ",
"                            X l N G w X                                                             ",
"                            X x 4 4 q w O       O 3 +                                               ",
"                            O & 0 W P 0 e O   < F W < . .             . . .                         ",
"                            O x : ^ / P 0 , + H ~ Q P F P 3       X < ; & 1                         ",
"                            O l # Q ( Q 2 H H K ~ ! ~ ~ Q 2 . X 1 $ b m 4 +                         ",
"                            X l % U ^ 0 > Q ~ ! ~ ~ ~ ~ L P + $ b > J 0 w O                         ",
"                            . & x e q q E ~ ~ ~ ~ ~ ~ ~ ! ~ L B Y Q S P L +                         ",
"                              % b + @ Y ~ ~ ~ ~ ~ ~ ~ ~ ~ ~ ~ ~ Q J 0 ~ U X                         ",
"                              # m & N ~ ~ ~ ~ ! ~ ~ ~ ~ ~ ! ~ ~ K 3 K ( t                           ",
"                              < b b B E ~ ~ ~ ~ ~ ~ ~ ~ ~ ~ ~ ~ Q 4 Q ^ <                           ",
"                              O z z D ^ ~ ~ W K ~ ~ ! ~ ! ~ ~ ~ ~ e I I .                           ",
"                              + b v J ~ ~ Q 6 8 S R ~ ~ ~ ~ ~ ~ ~ K 4 3                             ",
"                              1 b b ! E ~ F h { k y G ! ~ ~ ~ E H q O .                             ",
"                              = $ < e E ~ t ` X...] f r ! ! H y j k X                               ",
"                              < 3 N 4 G E P ` ....X.| s R J f [ X.[ o                               ",
"                              X D E H q ~ F k  ...X.} u ! H ) X.X.[ o                               ",
"                            < F Q H , q ! W 9 '  .| h F ~ J k  .X._ .                               ",
"                        O 0 K A , + < v ~ ~ H 7 p i e ! ~ W a { | p .                               ",
"                    O ; G L n = O @ m m K ! ~ L G J ! ~ ~ ~ P d g 2 .                               ",
"                  O F J S = * % # & M m & S ~ ~ ~ ~ ~ ~ ~ ~ ! K N 4 4 O                             ",
"                  4 ! D X # % V - = m m m z K Q ~ ~ ~ ~ ~ ~ ~ ~ D 1 A D +                           ",
"                  , , H > * & N 3 . # m m M v v E ~ E ~ ~ ! ! H 2 * ; B H 4 .                       ",
"                  D 1 2 H > = m 3   X # m M m M M V C Y Y C z + : $ @ < > Z q                       ",
"                X D - # 1 H > 1 +     . 3 l m m M m M m v # O . F V v * 3 W H X                     ",
"                X D 4 v & 1 F > X         X 1 # % & # @ + .     n v * : J , F <                     ",
"                  D - v C x 1 : 3             . . . .         O @ 2 D H 3 O D <                     ",
"                  S ; ; C C : . X                             . 1 G D < % = F <                     ",
"                  e 0 # V w O                                 2 S 4 * v z = F +                     ",
"                  q > & x X                                   O X @ V V ; - D O                     ",
"                  4 D = +                                         1 N V ; ; ,                       ",
"                  2 F O                                             - V & > q                       ",
"                  O S +                                             . , ; D 3                       ",
"                  X < X                                               + 1 F +                       ",
"                                                                        - D                         ",
"                                                                        : 0                         ",
"                                                                        + O                         ",
"                                                                                                    ",
"                                                                                                    ",
"                                                                                                    ",
"                                                                                                    ",
"                                                                                                    "
};
