/* XPM */
static char *e0b8006137d94e8a8241914a1dbfa8e7gm4An21DsZJABwYy[] = {
/* columns rows colors chars-per-pixel */
"50 50 98 2 ",
"   c None",
".  c #262626",
"X  c #2C2526",
"o  c gray17",
"O  c #342425",
"+  c #3B2324",
"@  c #5B1C1F",
"#  c #641B1E",
"$  c #6B1C1F",
"%  c #721A1E",
"&  c #7C1A1E",
"*  c #4E1F21",
"=  c #551F21",
"-  c #5C1F21",
";  c #641E21",
":  c #6C1F22",
">  c #731E21",
",  c #7C1E22",
"<  c #442223",
"1  c #4B2123",
"2  c #452B2C",
"3  c #542224",
"4  c #5B2124",
"5  c #5B383A",
"6  c #622124",
"7  c #6C2124",
"8  c #712124",
"9  c #7B2124",
"0  c #7B2529",
"q  c #722C2F",
"w  c #79292D",
"e  c #682D30",
"r  c #5D494A",
"t  c #5D5656",
"y  c #604041",
"u  c #604A4B",
"i  c #704042",
"p  c #6C5657",
"a  c #615F5F",
"s  c #6E5D5E",
"d  c #646565",
"f  c #6B6767",
"g  c #747575",
"h  c #7A7575",
"j  c #85171C",
"k  c #8C161B",
"l  c #84181C",
"z  c #8B1A1F",
"x  c #94161B",
"c  c #9C141A",
"v  c #94181D",
"b  c #99191E",
"n  c #A5141A",
"m  c #A9141A",
"M  c #A2191E",
"N  c #AD181E",
"B  c #B2161C",
"V  c #BA171E",
"C  c #B4181E",
"Z  c #B9191F",
"A  c #841E22",
"S  c #8B1D21",
"D  c #931D21",
"F  c #9B1D22",
"G  c #A41C22",
"H  c #AD1C22",
"J  c #B41B22",
"K  c #BC1A21",
"L  c #872125",
"P  c #A32126",
"I  c #C2161D",
"U  c #CA171E",
"Y  c #C4181F",
"T  c #CF181F",
"R  c #D3171F",
"E  c #C31A21",
"W  c #CA1921",
"Q  c #D41921",
"!  c #DA1921",
"~  c #E71E26",
"^  c #E91B23",
"/  c #F01C25",
"(  c #FC1D25",
")  c #858686",
"_  c #898686",
"`  c #878B8B",
"'  c #8D8E8E",
"]  c #919393",
"[  c #9B9D9C",
"{  c #A1A4A3",
"}  c #ACAEAD",
"|  c #B2B2B2",
" . c #B9BDBD",
".. c #C1C3C3",
"X. c #D1D3D3",
"o. c #DCDDDD",
"O. c #E5E5E5",
"+. c #E9E9E9",
/* pixels */
"                                                                                                    ",
"                                                                                                    ",
"                                                                                                    ",
"                                                                                                    ",
"                                                                                                    ",
"                                                                                                    ",
"                                                                                                    ",
"                                                                                                    ",
"                            X 3 4 X                                                                 ",
"                            O x E D 2                                                               ",
"                            O k - 6 L 3         . + O                                               ",
"                            + l : F 4 L 3     O 9 G O                   .                           ",
"                            + j : ^ E 6 L 3 O F ! K 6 7 7 +       . + 3 $ <                         ",
"                            + k ; ~ ( E 1 P 9 K ! Q Q ! E 1   . < $ x c ; +                         ",
"                            O k 6 Q / 9 6 W Q W ! ! ! ! J 4 O ; k > C 7 6 X                         ",
"                            O k > P L 4 E ! ! ! ! ! ! ! Q W F n V K L 9 H O                         ",
"                            X l k 1 3 J ! ! ! ! ! ! ! ! ! ! ! Q Q P 7 ! P                           ",
"                              % c = x ! ! ! Q ! Q ! Q ! ! ! ! ! J 3 J ( 8                           ",
"                              - n n V ! ! ! ! Q ! ! ! ! ! ! ! ! K 4 ~ ! 2                           ",
"                              + x k F ! Q ! Q Q ! ! ! ! ! ! Q ! Q 8 P P                             ",
"                              + x j G ! ! Q 7 7 J ! ! ! ! ! ! ! ! G 7 4                             ",
"                              1 n n W ! ! F f [ r , E ! ! ! ! ! K 0 O .                             ",
"                              4 k - D ! ! 0 { +.X.) 5 D ! ! J 0 p t X                               ",
"                  + < O X . . O 1 > 3 J ! q } O.+.O. .y W H r { o.} o                               ",
"                3 J K M F F D F H ! A A ! 9 ] O.O.+.X.i Q F ] O.+.| o                               ",
"              < v K A 6 z M B B B E S , ! H t ..O.O.' L ! F _ O.+.[ . . . . X X                     ",
"              9 & 6 A + 1 < < < + 3 = D ! ! , t ` g e W ! J s X.O.d < S S D F L +                   ",
"            + F 1 1 F 3 % k x < = $ : m W ! Q D > S W ! ! ! w g h 2 ; H b , b R A X                 ",
"            6 S @ # S 7 $ M A X * c m n , G ! ! ! ! ! ! ! ! W S S 3 + < 1 O A > D 3                 ",
"            A 6 j k 6 S ; m 1   . $ n m x l W ! ! ! ! ! ! ! ! ^ G < & % k 3 F + : A                 ",
"          + D * v B - D 4 $       O j m n n v c ! ! ! ! ! ! ! J 1 O z B & > A @ = F +               ",
"          3 S < z I & 7 : X         + j m n n c B V U W W I c *     4 N = F - j @ S 4               ",
"          > : & V N l < : X           + $ c m m n n m m n & +       + % ; S - v @ : 9               ",
"          S - > ; + O X + X             X < $ l x x k % 3 X           + A 4 v N ; - S X             ",
"        + D + X                             . X O O O .               < > = N I m = D +             ",
"        O 3 X                                                         + O O 3 > M ; S 3             ",
"          .                                                                     + + , 6             ",
"                                                                                  . ; :             ",
"                                                                                    O +             ",
"                                                                                                    ",
"                                                                                                    ",
"                                                                                                    ",
"                                                                                                    ",
"                                                                                                    ",
"                                                                                                    ",
"                                                                                                    ",
"                                                                                                    ",
"                                                                                                    ",
"                                                                                                    ",
"                                                                                                    "
};
