/* XPM */
static char *_c53484a7d0f4ebf9dd1319240c92e9cWkxKfXM3Or6Bg8iY[] = {
/* columns rows colors chars-per-pixel */
"50 50 190 2 ",
"   c None",
".  c #42763E",
"X  c #4D4E4D",
"o  c #485E46",
"O  c #50524F",
"+  c #504F50",
"@  c #5A5D5A",
"#  c #476F44",
"$  c #496E46",
"%  c #4B6D48",
"&  c #4B7C46",
"*  c #4D7E49",
"=  c #52754E",
"-  c #507E4C",
";  c #576556",
":  c #597356",
">  c #577654",
",  c #625B62",
"<  c gray39",
"1  c #6B6A6B",
"2  c #69646A",
"3  c #767574",
"4  c #7D7C7D",
"5  c #737B72",
"6  c #CE151A",
"7  c #D12429",
"8  c #D32E33",
"9  c #CE3136",
"0  c #D5363A",
"q  c #CC282C",
"w  c #D43E42",
"e  c #C54246",
"r  c #D8474B",
"t  c #D54F53",
"y  c #C45154",
"u  c #DA5357",
"i  c #DA585C",
"p  c #DB5E62",
"a  c #E05F63",
"s  c #DD6669",
"d  c #DD666A",
"f  c #CE6E70",
"g  c #DE777A",
"h  c #E0666A",
"j  c #E16E71",
"k  c #E07377",
"l  c #37942F",
"z  c #359E2C",
"x  c #389E2F",
"c  c #38952F",
"v  c #3F8938",
"b  c #3A9532",
"n  c #3A9A31",
"m  c #2DA722",
"M  c #32AC27",
"N  c #36A52C",
"B  c #38A22E",
"V  c #36AB2B",
"C  c #39A92F",
"Z  c #32A727",
"A  c #3DA333",
"S  c #3AAA30",
"D  c #438E3C",
"F  c #42913C",
"G  c #459D3D",
"H  c #42A239",
"J  c #44A83B",
"K  c #4D8B47",
"L  c #4E8449",
"P  c #4E8948",
"I  c #4A8445",
"U  c #518B4C",
"Y  c #50804B",
"T  c #4B9A44",
"R  c #539E4D",
"E  c #5A8F55",
"W  c #5E8A5A",
"Q  c #5D8559",
"!  c #5B9356",
"~  c #61855D",
"^  c #618A5D",
"/  c #62945D",
"(  c #61995C",
")  c #4BA943",
"_  c #54AB4C",
"`  c #51A14A",
"'  c #57B14E",
"]  c #5CA156",
"[  c #64A65F",
"{  c #60B058",
"}  c #668464",
"|  c #6E826C",
" . c #6A8C67",
".. c #659461",
"X. c #659A60",
"o. c #768975",
"O. c #759772",
"+. c #69A464",
"@. c #76AE6F",
"#. c #75B96F",
"$. c #77A472",
"%. c #78A373",
"&. c #76AB70",
"*. c #7AAB75",
"=. c #7EB279",
"-. c #77B871",
";. c #80807F",
":. c #82977F",
">. c #82AE7E",
",. c #817C81",
"<. c #C17F80",
"1. c #848384",
"2. c #8B878B",
"3. c #8D8C8D",
"4. c #8D988B",
"5. c #8A9789",
"6. c #918D91",
"7. c #949494",
"8. c #939A93",
"9. c #9C9B9C",
"0. c #99969A",
"q. c #BB8F8F",
"w. c #BB8384",
"e. c #BF9393",
"r. c #BF9999",
"t. c #8AAA87",
"y. c #91A68F",
"u. c #95AC93",
"i. c #99AD97",
"p. c #97B594",
"a. c #A2A09F",
"s. c #9F9BA0",
"d. c #A19AA1",
"f. c #A3A2A1",
"g. c #AAA9A7",
"h. c #ADADAC",
"j. c #AAA7AA",
"k. c #B0AFAD",
"l. c #B4A5A3",
"z. c #ADB4AD",
"x. c #A7BBA5",
"c. c #B1B0AE",
"v. c #B1AFB1",
"b. c #AFB3B1",
"n. c #B5B4B2",
"m. c #B5BBB5",
"M. c #BCB9B7",
"N. c #B8B6B9",
"B. c #BCBBBB",
"V. c #B8B7B5",
"C. c #C38687",
"Z. c #C59091",
"A. c #C09A9A",
"S. c #C89D9D",
"D. c #E99395",
"F. c #EA9699",
"G. c #E79698",
"H. c #E8878B",
"J. c #C4A4A4",
"K. c #C6BDBB",
"L. c #CBBCBB",
"P. c #CAB7B6",
"I. c #EBA3A5",
"U. c #F1ADB0",
"Y. c #F1BBBD",
"T. c #9EC09C",
"R. c #BBC4BA",
"E. c #C8C0BF",
"W. c #C3C3C3",
"Q. c #C9C5C4",
"!. c #CBC7CB",
"~. c #CCCCCB",
"^. c #D0C4C3",
"/. c #D3CDCC",
"(. c #CAD0C9",
"). c #D4D4D4",
"_. c #D8D8D8",
"`. c #EFC4C6",
"'. c #E8C7C8",
"]. c #F2C3C4",
"[. c #F5C6C8",
"{. c #F0CBCD",
"}. c #F1CFD0",
"|. c #EBDDDD",
" X c #E6D8D8",
".X c #F8D9DA",
"XX c #F7D2D3",
"oX c #F7DFE0",
"OX c #F9E5E6",
"+X c #E7E3E7",
/* pixels */
"                        c.c.k.k.c.k.c.c.v.k.k.v.c.z.k.k.v.k.k.c.z.k.                                ",
"                        k.V.Q./.^.Z.Z.^.Z.C.^.S.<.L.J.<.P./././.W.n.                                ",
"                        h.M.|.OX].u i ].k s Y.k r [.D.w I..XOX.X'.n.                                ",
"                        g.M.|.U.u 8 8 u F.I.p 8 r [.D.8 r D..XH.f l.                                ",
"                        h.M.|.Y.h 8 0 d D.F.j w r [.F.q 6 j XXa e l.                                ",
"                        h.M. XOX}.i s {.g p `.g t `.G.9 q g }.d y l.                                ",
"                        h.c.K.Q.E.e.r.K.e.e.K.J.q.P.J.w.w.A.K.A.q.h.                                ",
"                          c.h.k.z.n.b.h.b.b.z.b.b.h.b.m.b.z.h.n.n.c.                                ",
"                                                                                                    ",
"                    c.n.V.n.V.n.V.n.V.V.V.n.V.V.n.n.n.n.V.n.V.n.V.n.n.n.n.n.c.                      ",
"                  c.h.f.a.a.f.f.a.a.a.f.a.a.a.f.f.f.f.f.f.a.a.a.f.a.f.a.a.g.c.                      ",
"                  n.f.;.3 3 3 3 3 3 3 3 3 3 3 3 3 3 3 3 3 3 3 3 3 3 3 3 3 7.c.                      ",
"                  V.a.3 : - P L - L L - - - I L & & L P Y L P P K P P L - :.c.                      ",
"                  n.f.3 - n N B x N N n n n J ) T F G B n B C C V V V V n %.c.                      ",
"                  n.a.3 - b c B N M C C M _ p.x.i.o.U x N C M V M V V N c %.c.                      ",
"                  n.f.3 - n b c B B z N m _ R.!.N.2.Q x M V M C V V V N n %.c.                      ",
"                  n.f.3 - b b b n c b G H { z.B.b.1.E V V V V V V V V Z n %.c.                      ",
"                  n.a.3 - b l b n z _ p.p.u.4.3.2.,.! V V V V V V V V N b %.c.                      ",
"                  n.f.3 - b b l n _ >.g.B.N.7.,.5 } T V V V V V V V V Z N $.k.                      ",
"                  n.f.3 - b b b T p.f.1.g.W.B.0.| T S S V C S V S V S V S &.v.                      ",
"                  n.f.3 - b b ] t.9.2.4 f.W.W.0.5 W W W W W W W W ^ %.t./ 5.c.                      ",
"                  n.a.3 & b c $.B.3.4 3.f.z.h.0.3.3.2.4 2.3.3.3.2.3.v.N.7.a.c.                      ",
"                  n.f.3 - b b @.m.3.3.z.0.,.1.i.N.n.8.1.j.N.N.n.N.N.B.W.M.n.c.                      ",
"                  V.a.3 - b c ( 8. .O.B.b.7.4 O.#.-.+.! 5.s.s.s.0.s.N.B.f.f.c.                      ",
"                  n.f.3 - n c U 5 D +.m.B.j.3.! A V M S W | | | | | y.i.o.8.c.                      ",
"                  n.a.3 - b b D b l [ m.s.6.b.8.} A M V A H H H H H J ) J *.c.                      ",
"                  V.d.3 & c c R @.&.t.9.O.! =.u.8...H V V V V V M M M M M @.c.                      ",
"                  n.f.o.~ T n +.b.N.d.o.T V C =.h.1.E V V V V V V V V V V @.c.                      ",
"                  k.n.B.R.T.` E 3.7.o.U B V V X.3.,.! V M V V V V V V V C @.c.                      ",
"                  h.B._.+X(...& W : P A V V V T W } T V V V V V V V V V V @.c.                      ",
"                  h.m.~._.R.5 # F v n S V V V V C C V V V V V V V V V V V @.c.                      ",
"                  n.g.3.2.1.1 < > > P C V V V V V V V V V V V V V V V V V @.c.                      ",
"                  n.g.4 5 3 < @ , , = A V V V V V V V V V V V V V V V V V @.c.                      ",
"                  c.h.g.j.9.< X + + # N V V V V V V V V C V V V V V V V V @.c.                      ",
"                  k.V.Q.~.N.1 o . . D N V V V V V V V V V V V V V V V V V @.c.                      ",
"                  k.n.B.).!.3 $ n n x V V V V V V V V V V V V V V V V V V @.c.                      ",
"                  n.f.5 f.!.3 $ b b n V V V V V V V V V V V V V V V V V V @.c.                      ",
"                  m.9.< 3 6.2 $ b n N N V V V V V V V V V V V V V V V V V @.c.                      ",
"                  n.9.1 @ ; ; & n N V V V V V V V V V V V V V V V V V V V @.c.                      ",
"                  n.f.1 = v b x S V V V V V V V V V V V V V V V V V V V V @.c.                      ",
"                  n.f.3 - n V V V V V B N N V V V V V N V V V V V V V V C @.c.                      ",
"                  n.a.3 - n N V V V S n N V V V V V V V V V V V V V V C V @.c.                      ",
"                  n.f.3 - b n B V V V N N V V V V V V V V V V V V V M M V @.c.                      ",
"                  n.f.3 - b n N V V V V V V V V V V V V V V V V V V C C N @.c.                      ",
"                  n.f.3 - n N V V V V V V V V V V V V V V V V V V V V N n %.k.                      ",
"                  n.a.3 - b x n A N V N V V V V V V V S V V V V V V V N n %.k.                      ",
"                  n.a.3 - b n n n N V V V V V V V V V V V V V V V V V M n %.c.                      ",
"                  n.f.3 - b N V V S V V V V V V V V V V V V V V V V C N n %.c.                      ",
"                  n.f.3 - n N V V V V V V V V V V V N n B n n N N B x x b %.k.                      ",
"                  n.a.3 - n N C V V V V V V V V V V B n b b n N N c n c b %.c.                      "
};
