/* XPM */
static char *a863dfbd300c4176cc2efc068c9af722gZg0hxUlKumuP80f[] = {
/* columns rows colors chars-per-pixel */
"50 50 175 2 ",
"   c None",
".  c #B45400",
"X  c #BF5702",
"o  c #B75B00",
"O  c #BB5A00",
"+  c #C45B00",
"@  c #CB6400",
"#  c #C36C02",
"$  c #C67300",
"%  c #CF7B01",
"&  c #C77009",
"*  c #C8700D",
"=  c #D27600",
"-  c #D07A02",
";  c #DC7D04",
":  c #C67614",
">  c #CB7B1A",
",  c #C67A2C",
"<  c #D38302",
"1  c #DB8600",
"2  c #DD8A00",
"3  c #D4820C",
"4  c #D69100",
"5  c #DD9300",
"6  c #D6851B",
"7  c #D58B1D",
"8  c #E18400",
"9  c #E48B00",
"0  c #E49400",
"q  c #EE9400",
"w  c #E39A00",
"e  c #EE9C00",
"r  c #F19B00",
"t  c #DEA900",
"y  c #E3A300",
"u  c #EEA300",
"i  c #EEAC00",
"p  c #EFAE0D",
"a  c #F4A400",
"s  c #F5AC00",
"d  c #F0AD0B",
"f  c #E4B500",
"g  c #EEB200",
"h  c #E4BD00",
"j  c #F5B400",
"k  c #F8B700",
"l  c #F5BB00",
"z  c #F9BD00",
"x  c #CF8F27",
"c  c #D49320",
"v  c #D19332",
"b  c #DBA13C",
"n  c #DDA93A",
"m  c #DFB437",
"M  c #DEB53D",
"N  c #E2BE32",
"B  c #EEC300",
"V  c #EAC900",
"C  c #F5C300",
"Z  c #FAC500",
"A  c #F5CA00",
"S  c #FECC00",
"D  c #EBD100",
"F  c #EDD809",
"G  c #F6D400",
"H  c #FDD400",
"J  c #F7D900",
"K  c #F7DB00",
"L  c #F5D800",
"P  c #F7DC00",
"I  c #F3DC00",
"U  c #F9DA00",
"Y  c #FDD900",
"T  c #FED900",
"R  c #FED800",
"E  c #FCDB00",
"W  c #FEDA00",
"Q  c #FEDB00",
"!  c #F9DE00",
"~  c #FEDD00",
"^  c #FCDF00",
"/  c #FEDE00",
"(  c #FEDF00",
")  c #FDDC00",
"_  c #EAD018",
"`  c #F3E400",
"'  c #F7E000",
"]  c #F9E200",
"[  c #FBE300",
"{  c #FDE000",
"}  c #FCE100",
"|  c #FEE000",
" . c #FEE100",
".. c #FEE200",
"X. c #FEE300",
"o. c #FCE200",
"O. c #F9E500",
"+. c #FAE600",
"@. c #FDE400",
"#. c #FEE500",
"$. c #FEE700",
"%. c #FCE700",
"&. c #FEE300",
"*. c #F7E900",
"=. c #FBEA00",
"-. c #FDE900",
";. c #FEE800",
":. c #FEE900",
">. c #FDEB00",
",. c #FEEB00",
"<. c #FBED00",
"1. c #FAEC00",
"2. c #FBEF00",
"3. c #FDED00",
"4. c #FEEC00",
"5. c #FEED00",
"6. c #FCEE00",
"7. c #FEEF00",
"8. c #FEEE00",
"9. c #FEED00",
"0. c #F8F200",
"q. c #FEF000",
"w. c #FEF100",
"e. c #FDF300",
"r. c #FEF300",
"t. c #FEF200",
"y. c #FBF700",
"u. c #FDF500",
"i. c #FEF400",
"p. c #FEF500",
"a. c #FCF600",
"s. c #FDF600",
"d. c #FEF600",
"f. c #FEF700",
"g. c #FDF300",
"h. c #FDF800",
"j. c #FDF900",
"k. c #FEF800",
"l. c #FEF900",
"z. c #FFF900",
"x. c #FDFB00",
"c. c #FEFA00",
"v. c #FEFB00",
"b. c #FEFC00",
"n. c #FEFD00",
"m. c #FEFE00",
"M. c #FEFF00",
"N. c yellow",
"B. c #FEF900",
"V. c #FCF30C",
"C. c #FEFE0C",
"Z. c #FBF21F",
"A. c #E6C826",
"S. c #EBD43B",
"D. c #FDFD21",
"F. c #FBF231",
"G. c #FDFD36",
"H. c #FDFE38",
"J. c #D9A945",
"K. c #DFB84C",
"L. c #EDD94D",
"P. c #EDD950",
"I. c #EAD058",
"U. c #F5EA44",
"Y. c #FBF245",
"T. c #F8F148",
"R. c #FDFD4D",
"E. c #FAF257",
"W. c #F7F25D",
"Q. c #F8F35C",
"!. c #EEDB64",
"~. c #F6E763",
"^. c #F6EE6D",
"/. c #FDFE62",
"(. c #FDFF77",
/* pixels */
"                                        } } #.,.,.,.,.3.q.p.                                        ",
"                                  Y / / } } } } } } ,.,.3.q.q.v.p.                                  ",
"                            H H R R H S Z Z Z Z C C C A G U O.3.p.v.v.n.                            ",
"                        S S S H Z l j j s s s s j j j j j l C A L O.q.n.n.n.                        ",
"                      H S Z z k a s s s s s s k s j j j j l l l l C G O.y.n.n.                      ",
"                  Y Y R Z k a a a a a s a s s s j j j j j l j l l l l C L =.n.n.n.                  ",
"                / / R Z j a a a a a a s s s s s s s j j j l j l l l l l l A O.v.n.n.                ",
"              #.} Y Z s s s s a a r a a a a s s s j s j j j j j l l l l l C C U p.n.n.              ",
"            ,.#.} Z j s s s s a a a a a a s s s u L l j j j j j l l l l l l C C L y.n.n.            ",
"          q.3.#.A j j s s s s a a a a a a a a w V n.,.l s j j j j j j l l l l C C J p.n.n.          ",
"          q.3.G l j j j s s s s s a a a a a e f v.n.n.O.k s s j j l j l l l l l l C P v.n.          ",
"        p.q.! C l j j j j j s s s a a a a r y 0.n.n.n.n.Y j s j j j j j l l l l l C C O.n.n.        ",
"      v.v.<.C l l l l j j j s s s s s a a w ` n.n.n.n.n.n.G s s j j j j j l l l l C C A <.n.n.      ",
"      n.v.J C l l l l j j j j j s s s s w D n.n.n.n.n.n.n.v.A s s j j j j j l l l l C l L y.n.      ",
"    p.v.<.A C C l l l l j j j j j s s r h n.n.n.n.n.n.n.n.n.p.Z s j j j j j l j l l l l C =.v.v.    ",
"    q.q.L C C C C l l l l j j j j s u y y.n.n.n.n.n.n.n.n.n.n.3.z s s j j j j j l l l l l G p.v.    ",
"    ,.#.C C C A C C l l l l j k j l B *.v.p.p.v.p.p.p.v.p.v.p.p.3.H l j j j j j l l l l l C =.v.v.  ",
"  } #.G l C C C C C C l l l l A R ,.q.q.q.q.q.q.q.q.q.q.3.q.3.q.q.3.3.} A z j j j j j l l l J p.p.  ",
"  } / C l l l C C C C C Z H / #.,.,.,.#.#.,.,.#.,.#.,.#.#.,.,.#.#.,.#.,.,.#.Y S C l l l l l C <.p.  ",
"  Y R l j l l C C A G Y } } } } / } } } } } } } } } / } } } } } / } } } / / } } / Y C s s i g ] p.  ",
"R R A s j j l 5 4 H / / Y Y Y Y Y Y Y Y Y / Y Y Y Y Y Y Y R Y Y R R Y Y R R Y Y R Y y 0 u i i L q.p.",
"S H Z s s j k 5 . y R H H H R H H H H H H H H H H H H H H H H H H H H S H H H H H j 1 e u u u A q.q.",
"Z H k a s s j j % o g S S H S S S S S S Z S S H S S S S S S Z S S S S S Z S S S Z 1 w u u u u B 3.3.",
"S Z j a s s s j g # # Z S S S S S S S S S S S S S S S S S S S S S S S S S S S S w 9 u u u u u l ,.3.",
"S S k r a s s s j u o < S S S S S S S S S S S S S S Z S S S S S S S S S S S S i 2 e e u u u u g } ,.",
"S S s a a a s s s j w . y S S S S S S S S S S S S S S S S S S S S S S S S S Z 2 q e e e e e u g } ,.",
"S S j r a a a s s s j < o g H S S S S S S S S S S S S S S S S S S S S S S S w 9 e e e u e u u g / ,.",
"S S j a a a a a s s s j # $ Z S S S S S S S S Z S S S S S S S S S S S Z S g 8 q e e r e e e u j / #.",
"S S k a r a a a a s s s u . 5 S S S S S S S S S S S S S S S S H S S H S Z 0 q e q e e e e e e j } } ",
"S Z z a a a a r a a a r u - O S R R R R R R R R R R Y R Y Y R R Y Y R R R e q q q q e q e e e C / / ",
"  S Z s a r r r q q q e e 9 O S } } / } } } } } } } } #.#.} } } #.} } } / a q q q q q e e e u A /   ",
"  S Z a r q q r q q q q e 0 O L 3.3.3.3.3.3.3.3.3.3.3.3.3.3.3.3.3.3.q.q.O.u q e q q q q q e u S /   ",
"  S S s q q q q q q q q q q X L n.v.v.p.v.p.v.v.v.p.v.v.v.f.B.B.B.B.V.n.1.u e q e q q q q e s H Y   ",
"  S S z q q q q q q q q q 9 X F C.C.C.C.C.C.C.C.C.C.C.C.C.C.C.C.C.C.C.C.V.s e e e q q q q r l Y Y   ",
"    S Z a q q q q q q q q q X _ Z.Z.Z.Z.Z.Z.Z.D.D.D.D.D.D.D.D.D.D.D.D.D.D.u e e e e q q q u S H     ",
"    S S j q q q q q q q q 9 X A.G.G.G.G.G.G.G.G.G.H.H.G.H.H.H.H.H.H.H.H.F.d e e e q e q q j S H     ",
"      S Z a q q q q q q q q + m R.R.R.R.R.R.R.R.U.S.N S.T.R.R.R.R.R.R.R.T.p e u e e e e a Z S       ",
"      S H z e q q q q q q q + M /./././.Q.L.m c 3 < % & : x M P.~./././.Q.p u e e e e e C H S       ",
"        S Z j q q q q q q r + J.(.^.I.n 7 ; 9 w u i i i y 4 - & > v K.!.~.p a u u e e j H Y         ",
"          S Z s q q q q q q @ , b 6 ; 9 q e u u u u i i j g g g y 2 - * > u u u u u j H Y           ",
"          S S Z r q q q q q 8 ; 9 q q q q r e e u u u i i i g g g g g i y u i u u g R / Y           ",
"            S S z a q q q q q q q q q q q q e r u u u u i i g g g g i i i i u u g H } }             ",
"              S S Z u q q q q q q q q q q q q e e e u u u i i i g g g i i i i C ] ,.}               ",
"                S S Z j r q q q q q q q q q q q e e e u u i i i g g g g i g A =.3.,.                ",
"                  S S Z k a q q q q q q q q q q e e e e u u u i i g g g B ] q.q.3.                  ",
"                      S Z Z j a q q q q q q q q q q e e e u u i i i B I p.v.v.                      ",
"                        S S S Z z a e q q q q q q q q e e u u s C J <.v.n.n.                        ",
"                            S S H Z Z l s a u a e e u a j l A Y ] 3.q.q.                            ",
"                                S S S S S S Z Z Z Z Z S H R Y } } #.                                ",
"                                        S S S H S S S S S S                                         "
};
