/* XPM */
static char *_f22b8084b7e4f86ee6a800cf15f2c41Vn9XNWoer7sX2o4b[] = {
/* columns rows colors chars-per-pixel */
"50 50 199 2 ",
"   c None",
".  c black",
"X  c #010100",
"o  c #020200",
"O  c #030300",
"+  c #040400",
"@  c #050500",
"#  c #060600",
"$  c #070700",
"%  c #080800",
"&  c #090900",
"*  c #0A0A00",
"=  c #0B0A00",
"-  c #0B0B00",
";  c #0C0C00",
":  c #0D0D00",
">  c #0E0E00",
",  c #0F0E00",
"<  c #0F0F00",
"1  c #101000",
"2  c #111100",
"3  c #121200",
"4  c #141300",
"5  c #1A1A00",
"6  c #1C1B00",
"7  c #1D1D00",
"8  c #1E1E00",
"9  c #1F1F00",
"0  c #201F00",
"q  c #202000",
"w  c #222200",
"e  c #232300",
"r  c #242400",
"t  c #252400",
"y  c #262600",
"u  c #272600",
"i  c #272700",
"p  c #292800",
"a  c #292900",
"s  c #2B2B00",
"d  c #2C2B00",
"f  c #2F2F00",
"g  c #302F00",
"h  c #303000",
"j  c #313000",
"k  c #343300",
"l  c #363500",
"z  c #393800",
"x  c #3A3900",
"c  c #3A3A00",
"v  c #3B3A00",
"b  c #3D3C00",
"n  c #3E3D00",
"m  c #3E3E00",
"M  c #3F3E00",
"N  c #434200",
"B  c #444300",
"V  c #444400",
"C  c #454400",
"Z  c #464600",
"A  c #474700",
"S  c #484700",
"D  c #484800",
"F  c #494800",
"G  c #4C4B00",
"H  c #4C4C00",
"J  c #4D4C00",
"K  c #4D4D00",
"L  c #4E4D00",
"P  c #505000",
"I  c #515100",
"U  c #525100",
"Y  c #535200",
"T  c #535300",
"R  c #555500",
"E  c #585700",
"W  c #595800",
"Q  c #5C5B00",
"!  c #5F5E00",
"~  c #5F5F00",
"^  c #605F00",
"/  c #626100",
"(  c #646300",
")  c #656400",
"_  c #666500",
"`  c #666600",
"'  c #686800",
"]  c #6A6900",
"[  c #6A6A00",
"{  c #6B6A00",
"}  c #6C6B00",
"|  c #6F6E00",
" . c #6F6F00",
".. c #706F00",
"X. c #717000",
"o. c #727100",
"O. c #747300",
"+. c #767500",
"@. c #797800",
"#. c #7A7900",
"$. c #7D7C00",
"%. c #7F7E00",
"&. c #818000",
"*. c #848300",
"=. c #858400",
"-. c #878600",
";. c #888700",
":. c #929100",
">. c #939200",
",. c #949200",
"<. c #949300",
"1. c #959300",
"2. c #959400",
"3. c #969500",
"4. c #979600",
"5. c #9A9800",
"6. c #9B9A00",
"7. c #9D9C00",
"8. c #A4A300",
"9. c #A6A500",
"0. c #A8A700",
"q. c #A9A700",
"w. c #A9A800",
"e. c #AAA900",
"r. c #ABA900",
"t. c #ABAA00",
"y. c #ACAA00",
"u. c #ADAC00",
"i. c #AEAD00",
"p. c #AFAD00",
"a. c #B0AE00",
"s. c #B1AF00",
"d. c #B2B000",
"f. c #B3B200",
"g. c #B4B300",
"h. c #B5B300",
"j. c #B5B400",
"k. c #B6B500",
"l. c #B7B500",
"z. c #B7B600",
"x. c #B8B600",
"c. c #BCBB00",
"v. c #BDBB00",
"b. c #BDBC00",
"n. c #BFBD00",
"m. c #C0BF00",
"M. c #C1BF00",
"N. c #C1C000",
"B. c #C3C100",
"V. c #C5C300",
"C. c #C6C400",
"Z. c #C7C500",
"A. c #CAC900",
"S. c #CBCA00",
"D. c #CCCA00",
"F. c #CDCB00",
"G. c #CFCD00",
"H. c #CFCE00",
"J. c #D0CE00",
"K. c #D1D000",
"L. c #D2D000",
"P. c #D2D100",
"I. c #D3D100",
"U. c #D4D300",
"Y. c #D5D300",
"T. c #D5D400",
"R. c #D6D400",
"E. c #D7D500",
"W. c #D8D600",
"Q. c #D9D700",
"!. c #DAD800",
"~. c #DBD900",
"^. c #DDDB00",
"/. c #DEDC00",
"(. c #E0DE00",
"). c #E1DF00",
"_. c #E2E000",
"`. c #E3E100",
"'. c #E4E200",
"]. c #E5E300",
"[. c #E6E400",
"{. c #E8E600",
"}. c #E9E700",
"|. c #EAE800",
" X c #EBE900",
".X c #ECEA00",
"XX c #EDEB00",
"oX c #EEEC00",
"OX c #EEED00",
"+X c #EFED00",
"@X c #F0EE00",
"#X c #F0EF00",
"$X c #F1EF00",
"%X c #F2F000",
"&X c #F3F100",
"*X c #F4F100",
"=X c #F4F200",
"-X c #F5F300",
";X c #F6F400",
/* pixels */
"                                              . . . % - < - & . . .                                 ",
"                                      . - t C _ *.7.e.g.j.g.u.7.=.{ F a < .                         ",
"                                . < b +.u.E.|.-X;X;X;X;X-X;X;X;X;X-X.XW.g.%.B 4 .                   ",
"                            . 7 _ g.].-X-X-X%X%X%X%X%X%X%X%X%X%X%X$X-X-X-X-X}.v.o.t .               ",
"                        . 7 o.A.%X-X%X%X%X%X%X%X%X%X%X%X%X%X%X%X%X%X%X%X%X%X%X-X-XE.%.t .           ",
"                      & E C.%X-X%X%X%X%X%X%X%X%X%X%X%X%X%X%X%X%X%X%X%X%X%X%X%X%X%X%X-XH.{ 3         ",
"                  . w 4..X-X%X%X%X%X%X%X%X%X%X%X%X%X%X%X%X%X%X%X%X%X%X%X%X%X%X%X%X%X%X-X+Xe.f .     ",
"                . m B.;X%X%X%X%X%X%X%X%X%X%X%X%X%X%X%X%X%X%X%X%X%X%X%X%X%X%X%X%X%X%X%X%X%X-XJ.I O   ",
"              . I W.-X%X%X%X%X%X%X%X%X%X%X%X%X%X%X%X%X%X%X%X%X%X%X%X%X%X%X%X%X%X%X%X%X%X%X%X%X=.$   ",
"            . R (.-X%X%X%X%X%X%X%X%X%X%X%X%X%X%X%X%X%X$X%X%X%X%X%X%X%X%X%X%X%X%X%X%X%X%X;X`. .<     ",
"          . F /.-X%X%X%X%X%X%X%X%X%X%X%X%X%X%X%X%X%X%X$X$X$X%X%X%X%X%X%X%X%X%X%X%X%X%X-XJ.J .       ",
"          f J.-X$X%X%X%X%X%X%X%X%X%X%X%X%X%X%X%X%X%X-X-X+X.X-X-X%X%X%X%X%X%X%X%X%X%X-Xj.j .         ",
"        3 u.-X%X%X%X%X%X%X%X%X%X%X%X%X%X%X%X%X%X%X%X}.4.G C =.(.%X%X%X%X%X%X%X%X-X+X1.5             ",
"      . | $X%X%X%X%X%X%X%X%X%X%X%X%X%X%X%X%X%X%X%X%X;.+ . . . _ +X%X%X%X%X%X%X;X`.| &               ",
"      a Y.-X$X%X%X%X%X%X%X%X%X%X%X%X%X%X%X%X%X%X-X|.m . . . . 7 E.%X%X%X%X%X;XJ.J .                 ",
"    . *.-X%X%X%X%X%X%X%X%X%X%X%X%X%X%X%X%X%X%X%X%X+XQ . . . . b ].-X%X%X%X-Xj.j .                   ",
"    w Y.-X%X%X%X%X%X%X%X%X%X%X%X%X%X%X%X%X%X%X%X%X-XF.S < < k j.-X%X%X%X+X:.5                       ",
"  . _ -X$X%X%X%X%X%X%X%X%X%X%X%X%X%X%X%X%X%X%X%X%X$X-X[.M.v.(.-X%X%X;X`.o.&                         ",
"  & e.-X%X%X%X%X%X%X%X%X%X%X%X%X%X%X%X%X%X%X%X%X%X%X%X%X-X;X%X%X%X;XJ.J .                           ",
"  t W.-X%X%X%X%X%X%X%X%X%X%X%X%X%X%X%X%X%X%X%X%X%X%X%X%X%X%X%X%X%Xg.j .                             ",
". F .X%X%X%X%X%X%X%X%X%X%X%X%X%X%X%X%X%X%X%X%X%X%X%X%X%X%X%X-X.X4.5                                 ",
". { -X%X%X%X%X%X%X%X%X%X%X%X%X%X%X%X%X%X%X%X%X%X%X%X%X%X%X-X`...&                                   ",
". *.;X%X%X%X%X%X%X%X%X%X%X%X%X%X%X%X%X%X%X%X%X%X%X%X%X%X-XJ.J .                                     ",
". 4.;X%X%X%X%X%X%X%X%X%X%X%X%X%X%X%X%X%X%X%X%X%X%X%X%X$Xf.j .                                       ",
". 5.;X%X%X%X%X%X%X%X%X%X%X%X%X%X%X%X%X%X%X%X%X%X%X%X%X^.k .                                         ",
". 1.;X%X%X%X%X%X%X%X%X%X%X%X%X%X%X%X%X%X%X%X%X%X%X%X%X$Xe.0                                         ",
". =.;X%X%X%X%X%X%X%X%X%X%X%X%X%X%X%X%X%X%X%X%X%X%X%X%X%X-Xf.w                                       ",
". { -X%X%X%X%X%X%X%X%X%X%X%X%X%X%X%X%X%X%X%X%X%X%X%X%X%X$X-Xj.a                                     ",
". C +X%X%X%X%X%X%X%X%X%X%X%X%X%X%X%X%X%X%X%X%X%X%X%X%X%X%X%X-Xv.a .                                 ",
"  w E.%X%X%X%X%X%X%X%X%X%X%X%X%X%X%X%X%X%X%X%X%X%X%X%X%X%X%X%X-XM.f .                               ",
"  & 0.;X%X%X%X%X%X%X%X%X%X%X%X%X%X%X%X%X%X%X%X%X%X%X%X%X%X%X%X%X-XC.k .                             ",
"  . _ %X%X%X%X%X%X%X%X%X%X%X%X%X%X%X%X%X%X%X%X%X%X%X%X%X%X%X%X%X%X-XA.z .                           ",
"    r I.%X%X%X%X%X%X%X%X%X%X%X%X%X%X%X%X%X%X%X%X%X%X%X%X%X%X%X%X%X%X-XJ.m .                         ",
"    . *.;X%X%X%X%X%X%X%X%X%X%X%X%X%X%X%X%X%X%X%X%X%X%X%X%X%X%X%X%X%X$X-XI.N .                       ",
"      t I.%X%X%X%X%X%X%X%X%X%X%X%X%X%X%X%X%X%X%X%X%X%X%X%X%X%X%X%X%X%X%X-XE.F .                     ",
"      . { $X%X%X%X%X%X%X%X%X%X%X%X%X%X%X%X%X%X%X%X%X%X%X%X%X%X%X%X%X%X%X%X-X!.J .                   ",
"        3 0.-X$X%X%X%X%X%X%X%X%X%X%X%X%X%X%X%X%X%X%X%X%X%X%X%X%X%X%X%X%X%X%X-X^.R .                 ",
"          d F.-X%X%X%X%X%X%X%X%X%X%X%X%X%X%X%X%X%X%X%X%X%X%X%X%X%X%X%X%X%X%X$X-X/.W .               ",
"          . C !.;X%X%X%X%X%X%X%X%X%X%X%X%X%X%X%X%X%X%X%X%X%X%X%X%X%X%X%X%X%X%X%X-X`.^ .             ",
"            . I ^.;X%X%X%X%X%X%X%X%X%X%X%X%X%X%X%X%X%X%X%X%X%X%X%X%X%X%X%X%X%X%X$X-X[._ .           ",
"              . H E.-X%X%X%X%X%X%X%X%X%X%X%X%X%X%X%X%X%X%X%X%X%X%X%X%X%X%X%X%X%X%X%X-X}.{ +         ",
"                . z n.-X%X%X%X%X%X%X%X%X%X%X%X%X%X%X%X%X%X%X%X%X%X%X%X%X%X%X%X%X%X%X%X%X}.O.&       ",
"                  . w :.|.-X%X%X%X%X%X%X%X%X%X%X%X%X%X%X%X%X%X%X%X%X%X%X%X%X%X%X%X$X%X-X$X5.<       ",
"                      $ I M.%X;X%X%X%X%X%X%X%X%X%X%X%X%X%X%X%X%X%X%X%X%X%X%X%X%X%X-X-XA./ <         ",
"                        . 5 | C.$X-X-X$X%X%X%X%X%X%X%X%X%X%X%X%X%X%X%X%X%X%X%X-X-XJ.#.w .           ",
"                            . 5 ~ u.(.-X;X%X-X%X%X%X%X%X%X%X%X%X%X%X%X-X;X-X[.x.{ w .               ",
"                                  < l ..0.I.}.$X;X;X;X;X;X;X;X;X;X%X|.E.s.#.m 3 .                   ",
"                                      . & 7 m ~ $.1.8.u.f.u.9.5.*.( B t & .                         ",
"                                                . . + & - & + . .                                   ",
"                                                                                                    "
};
