/* XPM */
static char *d96b59fa077046eff8cb33ca150f657d9bl2cu1r4WVwlRev[] = {
/* columns rows colors chars-per-pixel */
"64 50 223 2 ",
"   c None",
".  c #701713",
"X  c #781A17",
"o  c #691311",
"O  c #742719",
"+  c #7D1B20",
"@  c #7B2921",
"#  c #821C1A",
"$  c #832017",
"%  c #85241C",
"&  c #832D1C",
"*  c #8B2B1E",
"=  c #8B241C",
"-  c #9A241A",
";  c #942C1C",
":  c #9E2C1F",
">  c #942D17",
",  c #8D301D",
"<  c #94331C",
"1  c #9A341B",
"2  c #963A1F",
"3  c #AA2B1F",
"4  c #A52D1D",
"5  c #A5341F",
"6  c #AA331F",
"7  c #A53B1E",
"8  c #A83F1F",
"9  c #A71F22",
"0  c #822C23",
"q  c #8C2D22",
"w  c #832122",
"e  c #932E22",
"r  c #873122",
"t  c #8C3222",
"y  c #8D352C",
"u  c #8C3A2F",
"i  c #943324",
"p  c #9C3524",
"a  c #943B24",
"s  c #9C3B24",
"d  c #923429",
"f  c #9D362A",
"g  c #933A2B",
"h  c #9C3C2B",
"j  c #8C3F36",
"k  c #9B3D31",
"l  c #963C31",
"z  c #AC2D21",
"x  c #AA2724",
"c  c #B02721",
"v  c #B12B22",
"b  c #B22B2D",
"n  c #A33524",
"m  c #AC3322",
"M  c #A33C24",
"N  c #AB3C24",
"B  c #A43C2A",
"V  c #AB3E2A",
"C  c #A8352B",
"Z  c #B13323",
"A  c #BA3323",
"S  c #B23B26",
"D  c #BF3D27",
"F  c #B23328",
"G  c #B33B2A",
"H  c #B93C2E",
"J  c #A83C30",
"K  c #B13D32",
"L  c #C23D27",
"P  c #C33E29",
"I  c #A9401F",
"U  c #9E422C",
"Y  c #9C4333",
"T  c #9A4A35",
"R  c #9A4538",
"E  c #9F503D",
"W  c #A64325",
"Q  c #AC4225",
"!  c #A5432C",
"~  c #AB442C",
"^  c #A6492C",
"/  c #AD4A2C",
"(  c #B34426",
")  c #BD4326",
"_  c #B24A26",
"`  c #BE4927",
"'  c #B4432A",
"]  c #BA452A",
"[  c #B34C2B",
"{  c #BC4B2B",
"}  c #B4522D",
"|  c #BC522C",
" . c #B65026",
".. c #A34432",
"X. c #AA4531",
"o. c #A34A34",
"O. c #AB4B33",
"+. c #A34B3A",
"@. c #AB4D39",
"#. c #B24533",
"$. c #B34B31",
"%. c #BB4C34",
"&. c #B74B3A",
"*. c #BC4030",
"=. c #AD5235",
"-. c #A3523C",
";. c #AE533B",
":. c #AD583E",
">. c #A25037",
",. c #B45235",
"<. c #BB5235",
"1. c #B4533C",
"2. c #BC543B",
"3. c #BC593D",
"4. c #B75B37",
"5. c #BF6133",
"6. c #C34527",
"7. c #C24927",
"8. c #C34529",
"9. c #C44C2A",
"0. c #CA4D2D",
"q. c #C6512C",
"w. c #C9542D",
"e. c #CD592E",
"r. c #D25D2D",
"t. c #C44B34",
"y. c #CA4E30",
"u. c #C24734",
"i. c #C45432",
"p. c #CB5432",
"a. c #C65935",
"s. c #CD5B32",
"d. c #C3543C",
"f. c #C45B3C",
"g. c #CB5D3A",
"h. c #CD5639",
"j. c #D05E33",
"k. c #D25E39",
"l. c #C66037",
"z. c #C2633D",
"x. c #CD623C",
"c. c #CC663A",
"v. c #D26235",
"b. c #D3643A",
"n. c #D56A3C",
"m. c #D96C3D",
"M. c #D66A37",
"N. c #DB703C",
"B. c #A54D40",
"V. c #A55542",
"C. c #AB5543",
"Z. c #AC5943",
"A. c #AE5E49",
"S. c #B25541",
"D. c #BB5542",
"F. c #B45B42",
"G. c #BA5C44",
"H. c #BD5548",
"J. c #BD5B49",
"K. c #B75F4C",
"L. c #B45F55",
"P. c #B24D44",
"I. c #AC614C",
"U. c #BD6345",
"Y. c #B4634C",
"T. c #BA644B",
"R. c #B06144",
"E. c #AE6153",
"W. c #B36652",
"Q. c #BB665B",
"!. c #B86852",
"~. c #C35C44",
"^. c #C25F4A",
"/. c #C95943",
"(. c #D25F41",
"). c #C26444",
"_. c #CD6443",
"`. c #C46944",
"'. c #CC6B46",
"]. c #C3634C",
"[. c #CD664B",
"{. c #C46C4E",
"}. c #CC6B4B",
"|. c #D16543",
" X c #D36B43",
".X c #DA6C42",
"XX c #D36D4B",
"oX c #D2654D",
"OX c #CC724D",
"+X c #D57046",
"@X c #DB7244",
"#X c #D5724C",
"$X c #DA754C",
"%X c #DB784E",
"&X c #C36453",
"*X c #CE6D52",
"=X c #C56C5B",
"-X c #C76756",
";X c #D26C52",
":X c #D26F5C",
">X c #CC735C",
",X c #C87257",
"<X c #D47453",
"1X c #D97651",
"2X c #DB7B53",
"3X c #D3755D",
"4X c #D57A58",
"5X c #D97D5B",
"6X c #D57A57",
"7X c #E17549",
"8X c #E1784C",
"9X c #E07345",
"0X c #CE7A63",
"qX c #C97563",
"wX c #D47760",
"eX c #D57B64",
"rX c #D57D67",
"tX c #DD8055",
"yX c #DE825A",
"uX c #E1815B",
"iX c #DD8464",
"pX c #D88669",
"aX c #DB8C74",
/* pixels */
"@X X|.XXn.b.p.}.%X@X.Xg.p.q.  /.oX|.oX<X_.  >X%. Xg.m.x.  |. XyX2X@Xb.  @XXX_. Xx.b.  t.[.d.;XuX7XF. X%X$X1X#X@X  _.+X|.@X+Xm.+X",
"+Xn.9Xr.6.8.6.G.s.s.s.j.9.7.2.P L p.y.x.0.=.7.7.7.7.8.w.G.9.7.7.9.n.k.:.q.s.s.s.q.7.$.6.9.w.j.M.j.<.e.s.e.j.9.7.` q.] 9.w.q.b.s.",
"    g       q       t a   @.        g B         % q u 0     d   ..E V.  U ! s O.B !   T             d   t & t t     q           ",
".X@Xb.Y M B B M M M a q.9.0.9.i.q.x.v.s.q.s.9.9.9.u.y.p.0.0.9.{ 5.} }  ._ Q 8 d.x.n.s.s.7.q.X.z z z f.f.%.:.p.e.9.9.9.7.~.6.6.8.",
"s.s.s.U - : Q { i.[ *  X9.q.9.s.b.i.n.s.e.j.( w.7.8.L 9.h.x.h.V U.z.`.M Q 8 7 1.a.2.w.p.9.9.Z.G { ' ' ' ' -.s.e.e.q.q.9.Y.q.g.s.",
"$X$X|.#X'.'.b.tX1X$XyX%XXXg.  %X<X          2X2X  <X;X    ~.3XoX3XeX#X  #X1XyX2X2Xm.  +X5X#X        #X2XXXyXuXN.  K.G.2.T.S.    ",
"x.w.e.s.w.9.9.$Xk.N.j.6.9.6.`.q.s.s.s.0.7.O.s.s.s.s.0.9.J.P L p.9.s.p.Y 9.7.9.7.s.s.$.e.s.s.s.9.9.6.i.8.q.7.q.s.<.~ Q ~ ' N 4 n ",
"        i       O.o.g f f i   M ! B ^ X.$.  Y Y i M s O.  m n ~ B ! B   ! q p ! ^ =.  ~ O./ ^ M ~ ~ Y.h s     C.  @ % . # $ * d ",
"s.x.s.O.9.9.q.9.i.9.a.s W M N ! M f @Xs.v.j.e.9.6.a.a.w.w.v.n.<.9.7.q.e.q.s.b.i.7.e.s.x.v.s.@.k.n.s.e.9.q.  s.p.s.e.p.9.<.9.9.s.",
"b.m.n.1.n.9.9.w.v.b.{ p | p.' n p n 1X.X%X6.9.9.] 2.{ 9.` { q.<.0.w._ e.e.s. Xi.q.w.e.{ w.<.C.f.3.i.w.7.9.  s.s.` 9.` ` U.9.w.e.",
").1XiX;X).:Xf.          yX@X  m.tX2XtX1XXX  |. Xg. X2.&X  A.W.E.C.W.R   q._. X$X$X%X  s.+X+X+X#XXXyX&.d.%.2.#.  J.}.iX*XwXoX3XQ.",
"b.j.M.v.9.` 6.7.7.q.s.s.a.w.$.s.s.7.q.9.9.+.w.9.7.7.7.7.0 ! ! M V ; x S.7.9.s.s.k.s.R 8.8.0.v.@Xx.{.D Z Z z Z Z F ' b.0.0.0.L P ",
"! ! U , Y T T   V s ! W ~ ~   O.O.~ h e X.  d g * = i i   0 r r r $ =   O.M s t a d   e n i h o.^   + w # X # #   p ~ ! ! B 3 m ",
"6.6.7.].w.7.e.j.n.v.d.6.q.e.e.v.j.@X` 9.0.y.y.p.t.9.q.9.e.q.j.b.x.w.g.w.q.9.q.' 8.w.y.p.p.u.1.m.8Xk.8.8.9.,Xp.w.9.9.9.7.O..X8X.X",
"v.s.q.!.7.9.s.p.f.s.F.6.9.0.9.8X@X1X' g.|.p.9.P 8.9.w.] v.e.s.n.i.b.s.9.9.q.n.f s.x.s.y.L L | s.v.s.v.w.w.Y.s.s.s.w.q.0.W k.s.s.",
"    ].].D.J.1.                *XrXeX[.wX^.          %X<X                |.4X+X2X<X X'.              #X            Q.eX  pX3XpX*X",
"~ ' m 4 m z m N ( _  .| | {   w.s.8.p.P P G.8.w.s.s.s.s.,.r.v.N.@X@Xx.R.6.9.8.v.N.k.l.7.9.e.s.e.q.'.q.7.w.7.7.s.x.P L 0.0.0.g.' ",
"# * e ; q # h   s * 1 2 2 2   B X.^ ~ N z   $.M M i h h   _ ~ ^ } } }   p B p U =.O.  Q n s W ~ ~ >.1.s B ~ / / s m 3 ~ / ~ X.B ",
"v.m.b.2.s.x.b.s.s.` w.v.v.q.s.9.0.9.s.n.x.s.i.x.d.n ~ ~ M W M t 7.| r.s.x.e.%Xb.p.a.i.q.q.e.q.9.s.s.b.b.s.1.Q m N n 6 5 w.9.e.s.",
"s.).s.G.<.s.q.s.s.0.9.n.s.e.s.] w.9.i.9.7.` q.9.<.4 p M ~ =.^ % 9.7.8.p.8X.X4Xs.b.s.7.q.q. Xq.q.w.s.a.s.i.:.V ( ( N N 5 q.8.q.s.",
"                                                                        i.XX#X<X$X2X    <X2X6X4X<X  }.aX>X3X  :X  ;XaXwX,X&X=XL.",
"l.k.N.r.8.9.6.{ 7.9.s.s.j.w.O.w.s.7.q.8.7.C.s.w.9.8.7.7.Y q.s.8.p.8.P G.9.9.s.s.x.e.+.6.9.8.v.m.k.OX9.k.9.y.8.L %.7.k.9.y.0.P P ",
"^ [ W U =.=.^ p ( M [ [ | [   ,.} [ V p $.j k ..p ; M M d ~ $.$.[ F Z   $.Q W p h !   n V n O.4.<.V.B / X.~ N m V B X.~ ~ V m F ",
"p.).g.~ q.p.s.a.x.e.f.5.[  . . ._ N { 0.p.y.p.h.t.f.[.p.g.b.n.f.w.w.q.k.q.b. Xq.9.s.s.b.n.s.1.b.n.b.e.q.0.  v.k.v.p.j.w.f.i.q.s.",
"v.m.v.&.v.q.9.9.s.b.i.5.z.`.Q N 8 7 V a.b.p.0.P P f.7.q.7.7.9.9.9.q.` s.p.p. Xq.9.w.s.p.s.i.A.s.~.s.s.9.` 3.j.j.9.q.9.7.U.9.w.s.",
").OX{.{.  ).    -X      pX].                                            OX6X                        qXaXrX                      ",
"x.w.w.s.w.7.9.t.P 8.h.8.s.9.).w.s.s.s.9.7.O.s.k.s.s.q.9.T.v.b.v.e.8.6...9.7.q.7.s.s.$._  . . .I I I ;X(.XX(.|.;X;X#.] { ' ] m S ",
"! W W M p p N V F N $.O.O.V   Q [ _ Q n (   h h p Q N [   <.G.=.n N M y O.p M / / [   2 s 2 a * 1 < qXD.H.^.].=XQ.q i % ; ; p ! ",
"b.m.m.z.' %.%.' G 6 N b.k.q.s.9.q.9.H u.*.H H &.K t.h.h.p.p.w.] 9.q.r.k.j.s.#Xb.s._.g.q.p.g.w.7.s.s.b.b.s.OXj.q.s.9.q.9.w.9.a.s.",
"g.x.s.G.V ' G ' ( m m b.e.e.j.] q.9.F c c c v v J L P y.p.b.a.p 9.6.8.w.8X.X4Xv.M.p.7.9.q.c.q.9.w.s.s.s.i.OXs.e.s.{ q.0.9.9.w.s.",
";.  {.{.[.6X{.                {.eX0X^.=XP.            OX                                    0X      }.              rX  =X=XqXF.",
"a.s.q.7.w.9.9.` 9.9.j.s.s.w.  w.s.8.p.P P ).r.j.M.M.M.M.1.9.9.j.s.s.q.U.9.8.e.s.s.q.`.6.9.9.v.N.s.c.w.9.q.9.9.s.s.P 8.y.y.9.s.] ",
"s ~ / ~ M p 1.  Q M W ~ [ Q   ~ / / ' m Z   a. .[ ^ ,.O.  Q M W [ ,.[   ( M M [ [ Q   s N n ! :.2...G.p B [ [ / ! m Z ' / $.$.B ",
".X8X.Xo.t.y.h.0.w.9.` q.q.q.p.a.w.x.b.x.q.s.9.q.q.~ ' ' ( ( Q 7 m.s.k.s.e.q.6.a.b.n.v.s.6.i.~.6.6.6.@X9Xm.F.s.q.9.9.9.9.^.6.6.6.",
"s.k.j.! L L p.s.b.a.B  Xq.9.q.s.b.a.n.e.e.s.{ q.9.N 6 N [ 4.,.i @X9X8X8.8.9.) D.g.f.p.s.9.7.{.w.l.s.k.s.v.:.s.s.s.q.w.q.T.q.s.s.",
").1XiX*X~.*Xd.      <XXX6X@X  n.tX1X6X#XXX  x. Xg.b.<.&X  }.3X3X|.wXH.  W =.=.`.+X'.  i. X X+XXX XyXB X.f ..g +.+.[.iX*X3XoX:XQ.",
"M.s.m.j.q.9.7.9.8.q.s.s.s.p.$.s.s.7.q.7.9.+.w.8.9.6.7.7.h s.a.9.p.L P >.7 I _ _ } / u 6.9.8.v..Xk.{.p - - - - - ; { x.0.0.0.L P ",
"^ ^ U i U >.T ~ [ B / ! / O.  ;.1.=.h i O.  y l q % i     B B ! ~ n m   a @ @ O @ O   < B d h o.o.  o X . o . .   f ! B ! B C V ",
"9.6.6.G.q.7.s.s.b.k.2.6.9.p.j.v.s.@X{ 9.0.y.p.y.8.9.8.9.e.q.s.b.g.q.q.{ w.` q.s m 0.D F F F ,.b.9Xk.6.` 6.{.s.e.9.9.7.7./ b.7X.X",
"s.a.w.!.7.q.w.q.2.a.C.` ` 9.6.$X@X<X' g.x.p.0.L 8.9.w.( s.s.e.n.<.v.s.q.q.q.n.i V #.' G A A } s.s.s.v.a.w.I.s.a.s.q.q.q.! j.p.w.",
"2.2.#.&.K #.' ].D.d.~.d.2.'   @XXX|.|._.x.  2X%X$X#XoXw.  ~.;X/.;X<X|.  _.+X1X$X1XM.   X<X XXX_. X   X$X X%X2Xn.  2X2X+X2X Xg.0.",
"#.N S ' m m 6 G.{ f.' z m z `.9.s.s.s.q.9.O.s.k.s.s.q.7.D.L L p.8.b.i.Y q.9.q.7.s.k.$.e.p.s.s.w.7.7.i.9.9.7.w.v.d.a.s.s.j.s.` 9.",
"                          d   !   s a i         q i             s f       %           M O.^ U h ~     g i               i 1   +.",
"s.x.s.X.9.9.w.9.i.q.a.N.j.j.j.e.9.7.{ 8.0.0.y.p.u.C F x 9 x b b 9.9.9.e.q.s.n.i.7.s.s.v.k.s.1.s.n.s.s.q.q.  N M W 5 M 1 <.8.9.j.",
"b.n.n.1.n.0.q.q.s.b.%.$X@X%X] 8.6.) V g.b.h.9.L P V F S 3 x x $.q.w.( j.e.e. Xq.q.q.e.{ i.<.C.a.3.i.p.9.9.  W W ; ; > 1 U.9.q.s.",
"'.n.2XXX X+Xx.  %.O.1.&.D.<.  _.;X[.(.oX~.  i.|.XX$X$X2X  g._.|.|.'. X  g.|.M.XX|.b.'.%.&.&.&.&.2.U.[.$X X1X5Xm.XX&X;X/.*X[.<Xf.",
"s.s.w.7.9.9.q.n m S ' ' ' ] y i.b.9.p.L L G.9.9.s.s.v.s.O.8.0.s.e.e.w.Z.6.8.7.v.9Xb.3.z 6 ] G ] ) 1.q.9.q.` 9.v.s.8.L y.y.p.x.' ",
"          l     k l d h   i     B h               y         Y Y 1.T.;.  +.    C.F.,.  =.f < g Y k     d p     o.        ..Y @.B ",
".X@Xb.T 8.y.h.0.0.9.[ q.9.q.9.8.q.x.] G v G z x 3 8.y.y.y.0.9.] m.j.v.j.q.9.) f.s.b.s.s.7.q.d.` 6.9..X@Xb.:.p.e.q.q.7.7.3.` 6.7.",
"i.w.s.! A D y.a.g.a.B  X{ { q.s.s.| ' N F S - m 3 P D 8.f.g.a.~ XXXX+X] 6.` S =.d.$.| q.{ 9.!.q.l.a.q.w.s.-.w.a.a.{ { ` A.q.l.a."
};
